<svg xmlns="http://www.w3.org/2000/svg" viewBox="0 0 500 500"><defs><style>.cls-1{fill:none;}.cls-2{fill:#b5b9c6;}.cls-3{fill:#633c2a;}.cls-4{fill:#f9c605;}.cls-5{font-size:45px;fill:#2c3133;font-family:Poppins-ExtraBold, Poppins;font-weight:800;}.cls-6{font-size:16px;fill:#7e8589;font-family:RobotoCondensed-Regular, RobotoCondensed Regular;}.cls-7{letter-spacing:-0.08em;}.cls-8{letter-spacing:-0.02em;}.cls-9{letter-spacing:-0.01em;}.cls-10{letter-spacing:-0.04em;}.cls-11{letter-spacing:-0.06em;}.cls-12{letter-spacing:-0.01em;}.cls-13{letter-spacing:0em;}</style></defs><g id="BACKGROUND"><rect class="cls-1" width="500" height="500"/></g><g id="OBJECTS"><path class="cls-2" d="M169.36,307.05l-7.49-7.43a2.72,2.72,0,0,1-.08-3.89L319,142.33l8.72,8.65L173.25,307.09A2.72,2.72,0,0,1,169.36,307.05Z"/><path class="cls-2" d="M366.22,190.09c-9.65-25.23-16.71-44.09-30-57.28s-30.77-19.76-57.52-29.56c-1.21-.44-1.81,1-.72,1.75,8.32,6,29.19,20.12,47.65,38.48,17.67,17.58,33,39.42,38.85,47.35C365.27,191.91,366.68,191.3,366.22,190.09Z"/><path class="cls-2" d="M331,155l-16.91-16.78a3,3,0,0,1-.13-4.21l11.88-12a3,3,0,0,1,4.21.09l16.91,16.78a3,3,0,0,1,.13,4.21l-11.88,12A3,3,0,0,1,331,155Z"/><path class="cls-2" d="M330.64,307.05l7.49-7.43a2.72,2.72,0,0,0,.08-3.89L181,142.33,172.31,151,326.75,307.09A2.72,2.72,0,0,0,330.64,307.05Z"/><path class="cls-2" d="M133.78,190.09c9.65-25.23,16.71-44.09,30-57.28s30.77-19.76,57.52-29.56c1.21-.44,1.81,1,.72,1.75-8.32,6-29.19,20.12-47.65,38.48-17.67,17.58-33,39.42-38.85,47.35C134.73,191.91,133.32,191.3,133.78,190.09Z"/><path class="cls-2" d="M169,155l16.91-16.78a3,3,0,0,0,.13-4.21l-11.88-12a3,3,0,0,0-4.21.09l-16.91,16.78a3,3,0,0,0-.13,4.21l11.88,12A3,3,0,0,0,169,155Z"/><path class="cls-3" d="M292.44,258.15c-1.95-24.15-32-49.41-32-49.41H239.56s-30.05,25.26-32,49.41c-1.89,23.57,7.62,29.14,42.44,29.14S294.33,281.72,292.44,258.15Z"/><path class="cls-4" d="M255.68,242.94v-.08a5.39,5.39,0,0,0,3-1.93,5.72,5.72,0,0,0,1-3.46v-1.1a5.49,5.49,0,0,0-2.18-4.78,10.77,10.77,0,0,0-5.74-1.52v-3.48h-3.21V230h-1.45v-3.45h-3.21V230h-2.6v27.53h2.6v3.51h3.21v-3.51h1.45v3.51h3.21v-3.53a11.35,11.35,0,0,0,6.16-1.65,5.59,5.59,0,0,0,2.37-4.86v-2.36C260.26,245.59,258.74,243.67,255.68,242.94Zm-8.27-9h3a3.52,3.52,0,0,1,2.38.67,2.77,2.77,0,0,1,.75,2.16v1.54a2.59,2.59,0,0,1-.92,2.24,4.75,4.75,0,0,1-2.77.67h-2.4Zm6.71,16.95a2.5,2.5,0,0,1-.79,2.1,3.85,3.85,0,0,1-2.4.61h-3.52v-8.45h2.74a4.92,4.92,0,0,1,3,.73,3.14,3.14,0,0,1,.93,2.61Z"/><path class="cls-3" d="M228.09,187.36l11.38,21.38h20.87L271.92,186s-4.59-4.89-13.12-.52-11.58-2.62-19-2.7C230.69,182.68,228.09,187.36,228.09,187.36Z"/><rect class="cls-4" x="236.43" y="206.86" width="27.07" height="3.76" rx="1.18"/><rect class="cls-4" x="236.58" y="124.91" width="26.85" height="26.85" rx="3.05"/><rect class="cls-4" x="236.58" y="287.53" width="26.85" height="26.85" rx="3.05"/><rect class="cls-4" x="155.26" y="206.22" width="26.85" height="26.85" rx="3.05"/><rect class="cls-4" x="317.89" y="206.22" width="26.85" height="26.85" rx="3.05"/><path class="cls-4" d="M297.1,164.92a3.06,3.06,0,0,1-4.17,1.12l-18-10.37a3.06,3.06,0,0,1-1.12-4.17l10.38-18a3.06,3.06,0,0,1,4.17-1.12l18,10.37a3.07,3.07,0,0,1,1.12,4.18Z"/><path class="cls-4" d="M215.78,305.76a3,3,0,0,1-4.17,1.11l-18-10.37a3.06,3.06,0,0,1-1.12-4.17l10.37-18a3.06,3.06,0,0,1,4.17-1.12l18,10.37a3.06,3.06,0,0,1,1.12,4.17Z"/><path class="cls-4" d="M195.28,172.55a3,3,0,0,1,1.11,4.17l-10.37,18a3.06,3.06,0,0,1-4.17,1.12l-18-10.37a3.06,3.06,0,0,1-1.12-4.17l10.37-18a3,3,0,0,1,4.17-1.11Z"/><path class="cls-4" d="M336.11,253.86a3.06,3.06,0,0,1,1.12,4.17l-10.37,18a3,3,0,0,1-4.17,1.12l-18-10.37a3,3,0,0,1-1.11-4.17l10.37-18a3,3,0,0,1,4.17-1.12Z"/><path class="cls-4" d="M226.16,151.5a3.06,3.06,0,0,1-1.12,4.17l-18,10.37a3.06,3.06,0,0,1-4.17-1.12l-10.37-18a3.07,3.07,0,0,1,1.12-4.18l18-10.37a3.06,3.06,0,0,1,4.17,1.12Z"/><path class="cls-4" d="M307.47,292.33a3.06,3.06,0,0,1-1.12,4.17l-18,10.37a3,3,0,0,1-4.17-1.11l-10.38-18a3.06,3.06,0,0,1,1.12-4.17l18-10.37a3.06,3.06,0,0,1,4.17,1.12Z"/><path class="cls-4" d="M181.85,243.49a3,3,0,0,1,4.17,1.12l10.37,18a3,3,0,0,1-1.11,4.17l-18,10.37a3,3,0,0,1-4.17-1.12l-10.37-18a3.06,3.06,0,0,1,1.12-4.17Z"/><path class="cls-4" d="M322.69,162.17a3.06,3.06,0,0,1,4.17,1.12l10.37,18a3.06,3.06,0,0,1-1.12,4.17l-18,10.37a3.06,3.06,0,0,1-4.17-1.12l-10.37-18a3,3,0,0,1,1.11-4.17Z"/><path class="cls-4" d="M250,143.7a76,76,0,0,0,0,151.88,76,76,0,0,0,0-151.88Zm0,135.13a59.19,59.19,0,1,1,58.17-59.19A59.21,59.21,0,0,1,250,278.83Z"/></g><g id="TEXTS"><text class="cls-5" transform="translate(94.89 369.07)">CRYPTO MINE</text><text class="cls-6" transform="translate(157.55 391.55)"><tspan class="cls-7">Y</tspan><tspan x="7.44" y="0">our </tspan><tspan class="cls-8" x="33.66" y="0">A</tspan><tspan class="cls-9" x="43.12" y="0">w</tspan><tspan x="54.74" y="0">esome</tspan><tspan class="cls-10" x="99.23" y="0"> </tspan><tspan class="cls-11" x="101.97" y="0">T</tspan><tspan x="108.9" y="0">agline He</tspan><tspan class="cls-12" x="171.81" y="0">r</tspan><tspan class="cls-13" x="176.88" y="0">e</tspan></text></g></svg>