<svg xmlns="http://www.w3.org/2000/svg" viewBox="0 0 500 500"><defs><style>.cls-1{fill:none;}.cls-2{fill:#dee5ff;}.cls-3{fill:#83bec4;}.cls-4{fill:#6663de;}.cls-5{fill:#1e3d44;}.cls-6{fill:#326068;}.cls-7{fill:#fff;}.cls-8{fill:#fcd936;}.cls-9{fill:#f89520;}</style></defs><g id="BACKGROUND"><rect class="cls-1" width="500" height="500"/></g><g id="OBJECTS"><rect class="cls-2" x="31.39" y="440.95" width="433.97" height="24.7" rx="12.35"/><polygon class="cls-2" points="160.58 256.31 120.97 232.34 212.05 88.85 251.66 112.82 160.58 256.31"/><polygon class="cls-2" points="182.47 96.02 259.03 142.34 250.63 71.74 182.47 96.02"/><rect class="cls-2" x="302.31" y="62.13" width="46.3" height="319.26" transform="translate(161.83 -136.47) rotate(31.18)"/><polygon class="cls-2" points="358.72 80.37 435.28 126.7 426.88 56.09 358.72 80.37"/><rect class="cls-2" x="392.02" y="212.38" width="29.02" height="200.09" transform="translate(220.48 -165.34) rotate(31.18)"/><polygon class="cls-2" points="427.38 223.81 475.36 252.84 470.1 208.59 427.38 223.81"/><path class="cls-3" d="M438.42,373.12a7.27,7.27,0,0,0,0-14.54h-4.3a39.16,39.16,0,0,0-1.45-5.41l3.72-2.15a7.27,7.27,0,1,0-7.27-12.59l-3.74,2.16a38.76,38.76,0,0,0-3.95-3.95l2.16-3.74A7.27,7.27,0,1,0,411,325.63l-2.15,3.73a39.19,39.19,0,0,0-5.41-1.46v-4.29a7.27,7.27,0,1,0-14.54,0v4.29a39.19,39.19,0,0,0-5.41,1.46l-2.15-3.73a7.26,7.26,0,0,0-9.93-2.66h0a7.28,7.28,0,0,0-2.66,9.93l2.16,3.74a38.76,38.76,0,0,0-4,3.95l-3.74-2.16A7.27,7.27,0,1,0,356,351l3.73,2.15a37.8,37.8,0,0,0-1.45,5.41h-4.3a7.27,7.27,0,1,0,0,14.54h4.3a37.8,37.8,0,0,0,1.45,5.41L356,380.68a7.27,7.27,0,1,0,7.27,12.59l3.74-2.16a38.76,38.76,0,0,0,4,3.95l-2.16,3.74a7.28,7.28,0,0,0,2.66,9.93h0a7.26,7.26,0,0,0,9.93-2.66l2.15-3.72a39.16,39.16,0,0,0,5.41,1.45v4.3a7.27,7.27,0,0,0,14.54,0v-4.3a39.16,39.16,0,0,0,5.41-1.45l2.15,3.72a7.27,7.27,0,0,0,12.59-7.27l-2.16-3.74a38.76,38.76,0,0,0,3.95-3.95l3.74,2.16a7.27,7.27,0,1,0,7.27-12.59l-3.72-2.15a39.16,39.16,0,0,0,1.45-5.41Zm-42.25,18.67a25.94,25.94,0,1,1,25.94-25.94A26,26,0,0,1,396.17,391.79Z"/><path class="cls-3" d="M81.81,185.89a4.79,4.79,0,0,0,0-9.58H79a26.67,26.67,0,0,0-1-3.56l2.45-1.41a4.78,4.78,0,0,0-4.78-8.29l-2.47,1.42a24.55,24.55,0,0,0-2.6-2.6L72,159.41a4.78,4.78,0,1,0-8.28-4.79l-1.42,2.45a24.86,24.86,0,0,0-3.56-.95v-2.83a4.79,4.79,0,1,0-9.57,0v2.83a24.86,24.86,0,0,0-3.56.95l-1.42-2.45a4.78,4.78,0,0,0-6.53-1.75h0a4.79,4.79,0,0,0-1.76,6.54l1.43,2.46a25.53,25.53,0,0,0-2.6,2.6l-2.47-1.42a4.78,4.78,0,1,0-4.78,8.29L30,172.75a26.67,26.67,0,0,0-1,3.56H26.18a4.79,4.79,0,0,0,0,9.58H29a26.67,26.67,0,0,0,1,3.56l-2.45,1.41a4.78,4.78,0,1,0,4.78,8.29l2.47-1.42a25.53,25.53,0,0,0,2.6,2.6l-1.43,2.46a4.79,4.79,0,0,0,1.76,6.54h0a4.78,4.78,0,0,0,6.53-1.75l1.42-2.45a24.86,24.86,0,0,0,3.56,1v2.83a4.79,4.79,0,1,0,9.57,0v-2.83a24.86,24.86,0,0,0,3.56-1l1.42,2.45A4.78,4.78,0,1,0,72,202.79l-1.42-2.46a24.55,24.55,0,0,0,2.6-2.6l2.47,1.42a4.78,4.78,0,0,0,4.78-8.29L78,189.45a26.67,26.67,0,0,0,1-3.56ZM54,198.18A17.08,17.08,0,1,1,71.07,181.1,17.09,17.09,0,0,1,54,198.18Z"/><path class="cls-3" d="M354.57,77.36a4.79,4.79,0,1,0,0-9.57h-2.83a24.86,24.86,0,0,0-.95-3.56l2.45-1.42a4.79,4.79,0,0,0-4.79-8.29L346,56a24.55,24.55,0,0,0-2.6-2.6l1.42-2.47a4.78,4.78,0,1,0-8.29-4.78l-1.41,2.45a26.27,26.27,0,0,0-3.56-1V44.76a4.79,4.79,0,0,0-9.57,0v2.83a26.27,26.27,0,0,0-3.56,1L317,46.1a4.79,4.79,0,0,0-6.54-1.76h0a4.8,4.8,0,0,0-1.75,6.54l1.42,2.47a26.59,26.59,0,0,0-2.6,2.6l-2.46-1.43a4.79,4.79,0,0,0-4.79,8.29l2.46,1.42a24.88,24.88,0,0,0-1,3.56H299a4.79,4.79,0,0,0,0,9.57h2.83a24.88,24.88,0,0,0,1,3.56l-2.46,1.42a4.78,4.78,0,1,0,4.79,8.28l2.46-1.42a26.59,26.59,0,0,0,2.6,2.6l-1.42,2.47a4.79,4.79,0,0,0,1.75,6.53h0A4.78,4.78,0,0,0,317,99.05l1.42-2.45a26.27,26.27,0,0,0,3.56,1v2.83a4.79,4.79,0,0,0,9.57,0V97.56a26.27,26.27,0,0,0,3.56-1l1.41,2.45a4.78,4.78,0,0,0,8.29-4.78l-1.42-2.47a24.55,24.55,0,0,0,2.6-2.6l2.46,1.42a4.78,4.78,0,1,0,4.79-8.28l-2.45-1.42a24.86,24.86,0,0,0,.95-3.56ZM326.76,89.65a17.08,17.08,0,1,1,17.08-17.08A17.09,17.09,0,0,1,326.76,89.65Z"/><path class="cls-2" d="M166,94.22a5.43,5.43,0,1,0,0-10.86h-3.21a28.25,28.25,0,0,0-1.09-4l2.79-1.61a5.43,5.43,0,0,0-5.44-9.41l-2.79,1.61a29.44,29.44,0,0,0-3-3l1.62-2.8a5.43,5.43,0,1,0-9.41-5.43l-1.61,2.79a28.61,28.61,0,0,0-4-1.09V57.22a5.43,5.43,0,0,0-10.86,0v3.21a28.74,28.74,0,0,0-4,1.09l-1.6-2.79a5.43,5.43,0,0,0-7.42-2h0a5.43,5.43,0,0,0-2,7.42l1.61,2.8a28.43,28.43,0,0,0-3,3l-2.8-1.62a5.43,5.43,0,1,0-5.43,9.41l2.78,1.61a28.23,28.23,0,0,0-1.08,4h-3.21a5.43,5.43,0,0,0,0,10.86h3.21a28.23,28.23,0,0,0,1.08,4l-2.78,1.61a5.43,5.43,0,0,0,5.43,9.41l2.8-1.62a28.43,28.43,0,0,0,3,3l-1.61,2.79a5.44,5.44,0,0,0,2,7.43h0a5.44,5.44,0,0,0,7.42-2l1.6-2.79a28.74,28.74,0,0,0,4,1.09v3.21a5.43,5.43,0,1,0,10.86,0v-3.21a28.61,28.61,0,0,0,4-1.09l1.61,2.79a5.43,5.43,0,1,0,9.41-5.44l-1.62-2.79a28.52,28.52,0,0,0,3-3l2.79,1.62a5.43,5.43,0,0,0,5.44-9.41l-2.79-1.61a28.25,28.25,0,0,0,1.09-4Zm-31.57,14a19.38,19.38,0,1,1,19.38-19.38A19.4,19.4,0,0,1,134.43,108.17Z"/><rect class="cls-4" x="110.17" y="217.13" width="286" height="229.65" rx="7.74"/><rect class="cls-5" x="122.04" y="229.28" width="262.26" height="205.85"/><path class="cls-4" d="M88.67,431.47h329a0,0,0,0,1,0,0v0a19,19,0,0,1-19,19H107.65a19,19,0,0,1-19-19v0A0,0,0,0,1,88.67,431.47Z"/><rect class="cls-6" x="238.8" y="244.76" width="1.28" height="36.24"/><path class="cls-6" d="M239.21,245.39a3.13,3.13,0,1,1,3.13-3.13A3.14,3.14,0,0,1,239.21,245.39Zm0-5a1.86,1.86,0,1,0,1.86,1.86A1.86,1.86,0,0,0,239.21,240.4Z"/><polygon class="cls-6" points="218.64 292.01 187.82 242.23 144.32 242.23 144.32 240.96 188.53 240.96 219.72 291.34 218.64 292.01"/><path class="cls-6" d="M142.23,244.2a3.14,3.14,0,1,1,3.13-3.13A3.14,3.14,0,0,1,142.23,244.2Zm0-5a1.86,1.86,0,1,0,1.85,1.86A1.86,1.86,0,0,0,142.23,239.21Z"/><polygon class="cls-6" points="208.84 304.37 153.43 278.53 160.62 259.42 161.82 259.87 155.04 277.88 209.38 303.21 208.84 304.37"/><path class="cls-6" d="M162,260.2a3.13,3.13,0,1,1,3.14-3.13A3.13,3.13,0,0,1,162,260.2Zm0-5a1.86,1.86,0,1,0,1.86,1.86A1.87,1.87,0,0,0,162,255.21Z"/><rect class="cls-6" x="136.92" y="318.84" width="64.23" height="1.28"/><path class="cls-6" d="M134.43,322.61a3.14,3.14,0,1,1,3.13-3.14A3.15,3.15,0,0,1,134.43,322.61Zm0-5a1.86,1.86,0,1,0,1.86,1.85A1.85,1.85,0,0,0,134.43,317.62Z"/><polygon class="cls-6" points="150.07 389.02 148.89 388.55 164.4 348.87 199.63 337.17 200.03 338.38 165.37 349.89 150.07 389.02"/><path class="cls-6" d="M148.7,394a3.14,3.14,0,1,1,3.14-3.14A3.14,3.14,0,0,1,148.7,394Zm0-5a1.86,1.86,0,1,0,1.86,1.86A1.86,1.86,0,0,0,148.7,389Z"/><rect class="cls-6" x="266.27" y="244.76" width="1.28" height="36.24"/><path class="cls-6" d="M267.13,245.39a3.13,3.13,0,1,1,3.14-3.13A3.13,3.13,0,0,1,267.13,245.39Zm0-5a1.86,1.86,0,1,0,1.86,1.86A1.86,1.86,0,0,0,267.13,240.4Z"/><polygon class="cls-6" points="287.71 292.01 286.62 291.34 317.81 240.96 362.02 240.96 362.02 242.23 318.52 242.23 287.71 292.01"/><path class="cls-6" d="M364.12,244.2a3.14,3.14,0,1,1,3.13-3.13A3.14,3.14,0,0,1,364.12,244.2Zm0-5a1.86,1.86,0,1,0,1.85,1.86A1.86,1.86,0,0,0,364.12,239.21Z"/><polygon class="cls-6" points="297.5 304.37 296.96 303.21 351.31 277.88 344.53 259.87 345.72 259.42 352.92 278.53 352.38 278.78 297.5 304.37"/><path class="cls-6" d="M344.32,260.2a3.13,3.13,0,1,1,3.13-3.13A3.13,3.13,0,0,1,344.32,260.2Zm0-5a1.86,1.86,0,1,0,1.86,1.86A1.87,1.87,0,0,0,344.32,255.21Z"/><rect class="cls-6" x="305.18" y="318.84" width="64.23" height="1.28"/><path class="cls-6" d="M371.92,322.61a3.14,3.14,0,1,1,3.13-3.14A3.15,3.15,0,0,1,371.92,322.61Zm0-5a1.86,1.86,0,1,0,1.85,1.85A1.85,1.85,0,0,0,371.92,317.62Z"/><polygon class="cls-6" points="356.27 389.02 340.98 349.89 306.31 338.38 306.72 337.17 341.95 348.87 357.46 388.55 356.27 389.02"/><path class="cls-6" d="M357.64,394a3.14,3.14,0,1,1,3.13-3.14A3.14,3.14,0,0,1,357.64,394Zm0-5a1.86,1.86,0,1,0,1.86,1.86A1.87,1.87,0,0,0,357.64,389Z"/><polygon class="cls-7" points="228.14 299.75 226.86 299.75 226.86 268.14 210.39 250.35 211.33 249.48 228.14 267.64 228.14 299.75"/><path class="cls-7" d="M209.11,250.55a3.22,3.22,0,1,1,3.22-3.21A3.22,3.22,0,0,1,209.11,250.55Zm0-5.16a1.95,1.95,0,1,0,1.94,2A1.94,1.94,0,0,0,209.11,245.39Z"/><polygon class="cls-7" points="215.01 300.29 183.39 280.11 178.79 262.39 180.02 262.07 184.5 279.3 215.69 299.22 215.01 300.29"/><path class="cls-7" d="M178.63,262.87a3.22,3.22,0,1,1,3.22-3.22A3.23,3.23,0,0,1,178.63,262.87Zm0-5.16a1.94,1.94,0,1,0,1.94,1.94A1.94,1.94,0,0,0,178.63,257.71Z"/><polygon class="cls-7" points="219.18 311.79 163.17 311.79 148.25 296.88 149.15 295.98 163.69 310.52 219.18 310.52 219.18 311.79"/><path class="cls-7" d="M146.9,297.47a3.22,3.22,0,1,1,3.22-3.21A3.22,3.22,0,0,1,146.9,297.47Zm0-5.15a1.94,1.94,0,1,0,1.94,1.94A1.94,1.94,0,0,0,146.9,292.32Z"/><polygon class="cls-7" points="149.15 343.82 148.25 342.92 163.17 328.01 219.18 328.01 219.18 329.29 163.69 329.29 149.15 343.82"/><path class="cls-7" d="M146.9,348.52a3.22,3.22,0,1,1,3.22-3.21A3.22,3.22,0,0,1,146.9,348.52Zm0-5.15a1.94,1.94,0,1,0,1.94,1.94A1.94,1.94,0,0,0,146.9,343.37Z"/><polygon class="cls-7" points="180.03 380.18 178.78 379.92 183.38 358.06 210.58 344.73 211.14 345.88 184.5 358.93 180.03 380.18"/><path class="cls-7" d="M178.83,385.84a3.22,3.22,0,1,1,3.21-3.21A3.22,3.22,0,0,1,178.83,385.84Zm0-5.15a1.94,1.94,0,1,0,1.94,1.94A1.94,1.94,0,0,0,178.83,380.69Z"/><polygon class="cls-7" points="278.73 299.75 277.45 299.75 277.45 267.64 294.26 249.48 295.2 250.35 278.73 268.14 278.73 299.75"/><path class="cls-7" d="M296.48,250.55a3.22,3.22,0,1,1,3.21-3.21A3.22,3.22,0,0,1,296.48,250.55Zm0-5.16a1.95,1.95,0,1,0,1.94,2A2,2,0,0,0,296.48,245.39Z"/><polygon class="cls-7" points="290.58 300.29 289.89 299.22 321.09 279.3 325.56 262.07 326.8 262.39 322.2 280.11 290.58 300.29"/><path class="cls-7" d="M327,262.87a3.22,3.22,0,1,1,3.21-3.22A3.22,3.22,0,0,1,327,262.87Zm0-5.16a1.94,1.94,0,1,0,1.94,1.94A1.94,1.94,0,0,0,327,257.71Z"/><polygon class="cls-7" points="342.42 311.79 286.41 311.79 286.41 310.52 341.89 310.52 356.43 295.98 357.33 296.88 342.42 311.79"/><path class="cls-7" d="M358.69,297.47a3.22,3.22,0,1,1,3.21-3.21A3.22,3.22,0,0,1,358.69,297.47Zm0-5.15a1.94,1.94,0,1,0,1.94,1.94A1.94,1.94,0,0,0,358.69,292.32Z"/><polygon class="cls-7" points="356.43 343.82 341.89 329.29 286.41 329.29 286.41 328.01 342.42 328.01 357.33 342.92 356.43 343.82"/><path class="cls-7" d="M358.69,348.52a3.22,3.22,0,1,1,3.21-3.21A3.22,3.22,0,0,1,358.69,348.52Zm0-5.15a1.94,1.94,0,1,0,1.94,1.94A1.94,1.94,0,0,0,358.69,343.37Z"/><polygon class="cls-7" points="325.56 380.18 321.09 358.93 294.45 345.88 295.01 344.73 322.21 358.06 322.27 358.36 326.81 379.92 325.56 380.18"/><path class="cls-7" d="M326.76,385.84a3.22,3.22,0,1,1,3.22-3.21A3.22,3.22,0,0,1,326.76,385.84Zm0-5.15a1.94,1.94,0,1,0,1.94,1.94A1.94,1.94,0,0,0,326.76,380.69Z"/><path class="cls-7" d="M252.79,239.57a3.22,3.22,0,1,1,3.22-3.22A3.22,3.22,0,0,1,252.79,239.57Zm0-5.16a1.94,1.94,0,1,0,2,1.94A1.94,1.94,0,0,0,252.79,234.41Z"/><rect class="cls-7" x="252.16" y="238.93" width="1.28" height="39.27"/><circle class="cls-8" cx="252.79" cy="331.87" r="56.91"/><circle class="cls-9" cx="252.79" cy="331.87" r="44.93"/><path class="cls-8" d="M227.94,347.52h3.34V317.41h-3.34v-11h30.71q8.36,0,13.05,3.41a12.62,12.62,0,0,1,2.81,16.42,12.87,12.87,0,0,1-4.39,4.09,17.56,17.56,0,0,1-4.85,1.84v.66a18.5,18.5,0,0,1,8.57,3q3.81,2.53,3.81,9.1,0,7-5.28,10.27t-13.72,3.24H227.94Zm25.69-19.14a3.81,3.81,0,0,0,2.91-1,4.64,4.64,0,0,0,1-3.25v-2.41a4.6,4.6,0,0,0-1-3.24,3.78,3.78,0,0,0-2.91-1H250v11Zm.47,19.14a3.81,3.81,0,0,0,2.91-1,4.6,4.6,0,0,0,1-3.24v-2.95a4.6,4.6,0,0,0-1-3.24,3.81,3.81,0,0,0-2.91-1H250v11.51Z"/><rect class="cls-8" x="243.02" y="299.75" width="7" height="64.23"/><rect class="cls-8" x="252.79" y="299.75" width="3.5" height="14.61"/><rect class="cls-8" x="252.79" y="349.38" width="3.5" height="14.61"/><rect class="cls-7" x="170.46" y="399.5" width="37.28" height="22.13" rx="4.6"/><path class="cls-5" d="M181,417.31l0-2.32,0-2.32c0-.84,0-2.12,0-3.83s-.06-3-.06-3.84v-.11a4.32,4.32,0,0,1,.09-.91.58.58,0,0,1,.61-.51,2.73,2.73,0,0,1,2.1.85,3.25,3.25,0,0,1,.77,2.25,4,4,0,0,1-.45,1.77,3.64,3.64,0,0,1-1.08,1.38,4.41,4.41,0,0,1,1.61,1.9,6.17,6.17,0,0,1,.52,2.56,4.11,4.11,0,0,1-.45,1.64,3.49,3.49,0,0,1-1.49,1.68,2.74,2.74,0,0,1-1.25.29h-.07Q181,417.79,181,417.31Zm1.89-8.68a9.21,9.21,0,0,0,.53-1.29,4.72,4.72,0,0,1,.18-.52v-.67a1.73,1.73,0,0,0-.41-1.09,1.2,1.2,0,0,0-.95-.53c-.17,0-.26.2-.26.59,0,.83,0,1.57,0,2.22l0,2.1A1.38,1.38,0,0,0,182.89,408.63Zm.71,7.32a2.7,2.7,0,0,0,.55-1.71,8.82,8.82,0,0,0-.14-1.6,3.42,3.42,0,0,0-.37-1.1,5.84,5.84,0,0,0-.41-.61,1.37,1.37,0,0,0-.36-.32l-.15-.06H182c.06,1.45.09,3.54.09,6.25A2.11,2.11,0,0,0,183.6,416Z"/><path class="cls-5" d="M188.34,417a6.67,6.67,0,0,1-1-2.55,21.38,21.38,0,0,1-.44-3.44c-.06-1.11-.09-2.31-.09-3.61V405.8c0-.45,0-.91,0-1.4a.49.49,0,0,1-.16-.38.6.6,0,0,1,.17-.41.56.56,0,0,1,.38-.18c.45,0,.68.45.68,1.35,0,.57,0,1.67.1,3.28s.09,2.71.09,3.29a5.23,5.23,0,0,1,.18,1,10,10,0,0,1,.08,1.21,5.07,5.07,0,0,0,.14,1,7.19,7.19,0,0,0,.37,1.23,3.22,3.22,0,0,0,.65,1.09,1.14,1.14,0,0,0,.83.42.6.6,0,0,0,.44-.17.84.84,0,0,0,.24-.49,5.33,5.33,0,0,0,.11-1v-3.68a14.67,14.67,0,0,0-.13-1.77c-.08-.8-.11-1.39-.11-1.8v-.13c0-.2,0-.38,0-.55l0-.54c0-.36,0-.89-.06-1.61s-.07-1.18-.07-1.62a.44.44,0,0,1,.21-.36.85.85,0,0,1,.48-.15l.48.43v.32a2.51,2.51,0,0,1-.08.55c-.05.35-.08.55-.08.6,0,1.15.07,2.73.19,4.74s.17,3.76.17,4.93a6.32,6.32,0,0,1-.19,1.66,1.75,1.75,0,0,1-.31.7,1.65,1.65,0,0,1-.54.46,1.67,1.67,0,0,1-.83.19A2.12,2.12,0,0,1,188.34,417Z"/><path class="cls-5" d="M195.49,417.73a.45.45,0,0,1-.14-.32l0-1.83c0-.82.05-1.43.05-1.83a10.5,10.5,0,0,0-.17-1.63,10.66,10.66,0,0,1-.19-1.64,7.37,7.37,0,0,0-.2-1.64,14.15,14.15,0,0,0-.53-1.78,13.38,13.38,0,0,1-.51-1.75,7.5,7.5,0,0,1-.21-1.63.28.28,0,0,1,.15-.23.62.62,0,0,1,.32-.09c.14,0,.27.14.4.43a7.9,7.9,0,0,1,.43,1.38c.14.59.22.95.25,1.06l.24,1.3.19.83a7.94,7.94,0,0,0,.1-.79c.07-1,.17-1.91.28-2.61a5.4,5.4,0,0,1,.3-1.09c.13-.28.28-.42.46-.42.34,0,.51.07.51.19a16,16,0,0,1-.46,3.18,16.48,16.48,0,0,0-.45,3.19l0,.3a1.63,1.63,0,0,0,0,.34v.3q0,.81.06,2.49l0,2.51,0,.44,0,.45v.47a.49.49,0,0,1-.19.39.64.64,0,0,1-.45.16A.48.48,0,0,1,195.49,417.73Z"/><rect class="cls-7" x="298.61" y="399.5" width="37.28" height="22.13" rx="4.6"/><path class="cls-5" d="M308,417.81c-.2-.12-.3-.25-.3-.4a.54.54,0,0,1,.11-.37.4.4,0,0,1,.32-.14,1.57,1.57,0,0,1,.55.15,2.12,2.12,0,0,0,.49.15.86.86,0,0,0,.65-.31,2.09,2.09,0,0,0,.46-.82,5,5,0,0,0,.34-1.7,6.26,6.26,0,0,0-.25-1.71,9.64,9.64,0,0,0-.69-1.75l-.3-.6c-.32-.63-.56-1.13-.73-1.49a7.93,7.93,0,0,1-.44-1.19,5.89,5.89,0,0,1-.29-1.76,3.43,3.43,0,0,1,.24-1.28,2.48,2.48,0,0,1,.71-1,1.58,1.58,0,0,1,1.17-.46,1.27,1.27,0,0,1,.66.2,1.13,1.13,0,0,1,.45.5l-.32.4a1.19,1.19,0,0,1-.74-.19,1,1,0,0,0-.59.33,2.14,2.14,0,0,0-.39.67,2.57,2.57,0,0,0-.11.72,5.76,5.76,0,0,0,.2,1.46,7.17,7.17,0,0,0,.52,1.41l1.32,2.64a8.08,8.08,0,0,1,.51,1.53,7.64,7.64,0,0,1,.19,1.7,4.7,4.7,0,0,1-.61,2.34,2.49,2.49,0,0,1-.83.9,2,2,0,0,1-1.13.33A2.66,2.66,0,0,1,308,417.81Z"/><path class="cls-5" d="M314.38,417.65a.47.47,0,0,1-.32-.52v-11a5.55,5.55,0,0,0-.11-1,4.4,4.4,0,0,1-.13-1v-.06a4.16,4.16,0,0,1,.47-.68,4.2,4.2,0,0,0,.7-.07,3.85,3.85,0,0,1,.7-.08,1.07,1.07,0,0,1,.58.18.51.51,0,0,1,.29.43c0,.37-.29.56-.87.56h-.27l-.26,0a.73.73,0,0,0-.21,0c0,.43,0,.95.08,1.55l0,.53,0,1c0,.24,0,.6-.06,1.09l0,1.06.26-.06a2.46,2.46,0,0,1,.62-.11.52.52,0,0,1,.38.16.48.48,0,0,1,.17.37.58.58,0,0,1-.14.4.42.42,0,0,1-.35.18l-.23,0h-.24a.51.51,0,0,0-.4.14v5.83l1.06-.05c.72,0,1.08.16,1.08.49v.07a.86.86,0,0,1-.42.37,2.34,2.34,0,0,1-.59.18l-.62,0H315A1.74,1.74,0,0,1,314.38,417.65Z"/><path class="cls-5" d="M319.6,417.66a.55.55,0,0,1-.19-.42,1.52,1.52,0,0,1,.07-.42,2,2,0,0,0,.06-.39c0-1.12-.07-3.28-.19-6.46q-.19-4.08-.19-6.44a.31.31,0,0,1,.13-.27.52.52,0,0,1,.32-.11.59.59,0,0,1,.4.16.54.54,0,0,1,.17.39c0,.75,0,1.89.11,3.4.07,1.67.1,2.81.1,3.4l0,.22v.46c0,1.09,0,2.73,0,4.91v.49h1.46c.26.19.39.38.39.56a.5.5,0,0,1-.14.37.41.41,0,0,1-.33.16l-.21,0-.07,0-.36,0h-.32a1.42,1.42,0,0,0-.3,0,.7.7,0,0,1-1,0Z"/><path class="cls-5" d="M324.33,417.66a.53.53,0,0,1-.2-.42,1.52,1.52,0,0,1,.07-.42,2,2,0,0,0,.06-.39c0-1.12-.06-3.28-.19-6.46q-.19-4.08-.19-6.44a.34.34,0,0,1,.13-.27.52.52,0,0,1,.32-.11.58.58,0,0,1,.4.16.5.5,0,0,1,.17.39c0,.75,0,1.89.11,3.4.07,1.67.1,2.81.1,3.4l0,.22v.46c0,1.09.05,2.73.05,4.91v.49h1.46c.26.19.39.38.39.56a.5.5,0,0,1-.14.37.41.41,0,0,1-.33.16l-.2,0-.08,0-.36,0h-.32a1.42,1.42,0,0,0-.3,0,.65.65,0,0,1-.53.22A.64.64,0,0,1,324.33,417.66Z"/><path class="cls-3" d="M98.06,126.29s71.9,10.6,118.78,86.91c0,0-51.18-64.57-124.6-67.1Z"/><rect class="cls-9" x="84.27" y="125.4" width="11.32" height="177.59" transform="translate(168.89 -4.28) rotate(42.64)"/><rect class="cls-5" x="30.31" y="258.42" width="11.32" height="28.73" transform="translate(194.31 47.77) rotate(42.64)"/><rect class="cls-5" x="138.82" y="138.36" width="15.45" height="28.73" transform="translate(142.21 -58.89) rotate(42.64)"/><circle class="cls-8" cx="224.39" cy="135.74" r="29.97"/><circle class="cls-9" cx="224.39" cy="135.74" r="23.66"/><path class="cls-8" d="M235.47,137.85a9.65,9.65,0,0,0-4.51-1.58v-.36a8.63,8.63,0,0,0,2.56-1,6.77,6.77,0,0,0,2.31-2.14,6.09,6.09,0,0,0,1-3.51,6,6,0,0,0-2.46-5.15,11.57,11.57,0,0,0-6.87-1.79h-1.24v-3.52h-1.85v3.52h-1.46v-3.52h-3.69v3.52H211.3v5.78h1.76V144H211.3v5.78h7.94v2.9h3.69v-2.9h4.55a13.63,13.63,0,0,0,7.22-1.71,5.87,5.87,0,0,0,2.78-5.41C237.48,140.34,236.81,138.75,235.47,137.85Zm-10.64-9.72a2,2,0,0,1,1.54.54,2.46,2.46,0,0,1,.51,1.71v1.27a2.43,2.43,0,0,1-.51,1.71,2.05,2.05,0,0,1-1.54.55h-1.9v-5.78Zm2.29,13.6a2.46,2.46,0,0,1-.51,1.71,2,2,0,0,1-1.53.54h-2.15v-6.06h2.15a2,2,0,0,1,1.53.55,2.43,2.43,0,0,1,.51,1.71Z"/><rect class="cls-8" x="224.39" y="144.96" width="1.84" height="7.7"/><circle class="cls-8" cx="328.26" cy="175.44" r="29.97"/><circle class="cls-9" cx="328.26" cy="175.44" r="23.66"/><path class="cls-8" d="M337.32,182.16a9.6,9.6,0,0,0-3.37-3.39l.16-.32a9,9,0,0,0,2.72.24,6.78,6.78,0,0,0,3-.93,6.65,6.65,0,0,0,2.43-8.43,11.42,11.42,0,0,0-5.4-4.61l-1.12-.54,1.53-3.17-1.66-.8-1.53,3.17-1.32-.64,1.53-3.17L331,158l-1.53,3.17-7.16-3.46-2.51,5.2,1.59.77-6.9,14.28-1.59-.77-2.51,5.21,7.15,3.45-1.26,2.61,3.32,1.6,1.26-2.61,4.09,2a13.61,13.61,0,0,0,7.25,1.61,5.9,5.9,0,0,0,4.86-3.66Q338.55,184.23,337.32,182.16ZM332,168.77a2,2,0,0,1,1.15,1.16,2.47,2.47,0,0,1-.29,1.76l-.55,1.14a2.46,2.46,0,0,1-1.2,1.32,2,2,0,0,1-1.62-.18l-1.71-.82,2.51-5.21ZM328.12,182a2.44,2.44,0,0,1-1.21,1.32,2,2,0,0,1-1.61-.17l-1.94-.94,2.64-5.46,1.93.94a2,2,0,0,1,1.15,1.16,2.48,2.48,0,0,1-.29,1.76Z"/><rect class="cls-8" x="322.49" y="183.76" width="1.84" height="7.7" transform="translate(113.84 -122.02) rotate(25.79)"/><path class="cls-9" d="M266.9,187.58C254.23,199,242.45,207.84,237,206.68c-.78-.17-2.49-2.32-2.95-2.83-3.68-4.08,5.08-18,19.57-31s29.21-20.34,32.88-16.26a35.21,35.21,0,0,1,3.16,3.06C291.28,164.72,280.27,175.54,266.9,187.58Z"/><ellipse class="cls-8" cx="263.2" cy="183.03" rx="35.31" ry="9.95" transform="translate(-54.84 223.34) rotate(-42.04)"/><ellipse class="cls-9" cx="263.72" cy="183.61" rx="27.88" ry="7.85" transform="translate(-55.1 223.84) rotate(-42.04)"/><path class="cls-8" d="M264.83,188.55a3.09,3.09,0,0,0,.39-2.36l.31-.28a3.1,3.1,0,0,0,1.41-.13,9.79,9.79,0,0,0,2.4-1.13,22.12,22.12,0,0,0,3.28-2.52,17.56,17.56,0,0,0,4-4.67c.68-1.35.7-2.39,0-3.11l-.27-.31,3.08-2.77-.41-.46-3.08,2.78-.33-.36,3.08-2.78-.82-.9-3.08,2.77-1.76-2L268,174.92l.39.44-13.87,12.51-.39-.43L249,192l1.76,2-2.53,2.29.82.9,2.53-2.28,1,1.12c.66.73,1.69.87,3.1.43a23.06,23.06,0,0,0,9.1-7.86ZM271,178.26c.15.17.1.44-.14.81a8.42,8.42,0,0,1-1.38,1.47l-1.11,1a9.38,9.38,0,0,1-1.61,1.23c-.39.2-.67.22-.82,0l-.42-.47,5.06-4.56Zm-11.39,11.29a8.88,8.88,0,0,1-1.61,1.23c-.4.2-.67.22-.82.05l-.48-.53,5.3-4.78.48.53c.15.17.11.44-.14.81a8.42,8.42,0,0,1-1.38,1.47Z"/><rect class="cls-8" x="251.66" y="189.04" width="0.61" height="9.07" transform="translate(227.01 -123.19) rotate(47.96)"/><path class="cls-9" d="M347.22,117.64c17.06.61,31.66,2.46,34.79,7.11.44.67.17,3.41.15,4.09-.2,5.49-16.16,9.38-35.65,8.68s-35.13-5.72-34.94-11.21a36.07,36.07,0,0,1-.14-4.4C313.8,117.1,329.24,117,347.22,117.64Z"/><ellipse class="cls-8" cx="346.72" cy="123.49" rx="9.95" ry="35.31" transform="translate(210.88 465.55) rotate(-87.94)"/><ellipse class="cls-9" cx="346.74" cy="122.7" rx="7.85" ry="27.88" transform="translate(211.68 464.82) rotate(-87.94)"/><path class="cls-8" d="M349.38,118.38a3.16,3.16,0,0,0-1.92,1.43h-.41a3.2,3.2,0,0,0-1.11-.89,10.08,10.08,0,0,0-2.51-.86,22,22,0,0,0-4.11-.47,17.27,17.27,0,0,0-6.09.6c-1.43.49-2.16,1.23-2.2,2.2v.41l-4.15-.15,0,.61,4.15.15,0,.49-4.14-.15,0,1.22,4.14.15-.09,2.63,6.8.25,0-.59,18.67.67,0,.59,6.8.24.1-2.63,3.4.12.05-1.22-3.41-.12.05-1.51c0-1-.6-1.81-1.92-2.47a16.26,16.26,0,0,0-6.34-1.15A16.47,16.47,0,0,0,349.38,118.38Zm-11.57,3.12q0-.34.66-.48a8.6,8.6,0,0,1,2-.1l1.49,0a9.09,9.09,0,0,1,2,.24c.42.13.63.31.62.53l0,.64-6.81-.25Zm16-.18a8.52,8.52,0,0,1,2,.24c.42.13.63.3.62.53l0,.71-7.13-.25,0-.72q0-.33.66-.48a8.67,8.67,0,0,1,2-.1Z"/><rect class="cls-8" x="361.81" y="119.2" width="0.61" height="9.07" transform="translate(225.47 481.17) rotate(-87.94)"/><path class="cls-9" d="M291.7,109.83c4.76,15.27,6,28.84-.39,32.54-.44.26-3.59,1.13-4.08,1.28-7.55,2.36-17.81-9-22.9-25.29s-3.09-31.46,4.47-33.82a42.87,42.87,0,0,1,4.52-1.4C280.61,83,287,94.85,291.7,109.83Z"/><ellipse class="cls-8" cx="282.24" cy="112.78" rx="14.33" ry="30.96" transform="translate(-20.78 89.14) rotate(-17.32)"/><ellipse class="cls-9" cx="282.24" cy="112.78" rx="11.31" ry="24.44" transform="translate(-20.78 89.14) rotate(-17.32)"/><path class="cls-8" d="M288,113.28a3.62,3.62,0,0,0-2.55-.92l-.11-.35a3.44,3.44,0,0,0,.87-1.32,6.27,6.27,0,0,0,.39-2.45,12,12,0,0,0-.62-3.59,9.92,9.92,0,0,0-2.71-4.72,3.69,3.69,0,0,0-3.69-.8l-.57.18-1.08-3.47-.84.26,1.08,3.47-.66.21-1.09-3.47-1.68.52,1.08,3.47-3.62,1.13,1.77,5.7.81-.25,4.87,15.64-.8.25,1.78,5.69,3.62-1.13.89,2.86,1.68-.53-.89-2.85,2.08-.65a4.13,4.13,0,0,0,2.77-2.71q.75-2.08-.39-5.73Q289.27,114.32,288,113.28Zm-7.85-8.07a.79.79,0,0,1,.87.32,4.64,4.64,0,0,1,.76,1.61l.39,1.25a4.75,4.75,0,0,1,.29,1.76.77.77,0,0,1-.53.75l-.87.27-1.78-5.69Zm5.23,13.08a4.78,4.78,0,0,1,.29,1.76.79.79,0,0,1-.53.76l-1,.3-1.87-6,1-.31a.77.77,0,0,1,.86.32,4.73,4.73,0,0,1,.76,1.61Z"/><rect class="cls-8" x="286.24" y="121.56" width="0.88" height="7.95" transform="translate(-24.37 91.03) rotate(-17.32)"/><path class="cls-8" d="M221.52,205.7a74.22,74.22,0,0,1,9.79-21.92c.55-.84-.8-1.63-1.36-.79A75.82,75.82,0,0,0,220,205.28a.79.79,0,0,0,1.52.42Z"/><path class="cls-8" d="M238.56,175.57l2.62-5.65a.81.81,0,0,0-.29-1.07.78.78,0,0,0-1.07.28l-2.61,5.65a.8.8,0,0,0,.28,1.07.78.78,0,0,0,1.07-.28Z"/><path class="cls-8" d="M215,194.27l1.65-6.54a.78.78,0,0,0-1.51-.42l-1.66,6.54a.79.79,0,0,0,1.52.42Z"/><path class="cls-8" d="M267.9,209.42l15.63-7.16c.92-.42.12-1.77-.79-1.35l-15.64,7.15c-.91.42-.12,1.77.8,1.36Z"/><path class="cls-8" d="M195.35,166.93a101.7,101.7,0,0,1-4.57-20.31c-.11-1-1.68-1-1.56,0a103.7,103.7,0,0,0,4.61,20.73c.32,1,1.84.54,1.52-.42Z"/><path class="cls-8" d="M198.49,208a42.42,42.42,0,0,0-8.49-3.91c-1-.32-1.37,1.19-.41,1.51a40.35,40.35,0,0,1,8.11,3.76.79.79,0,0,0,.79-1.36Z"/><path class="cls-8" d="M267.3,152.55l.81-5.72a.81.81,0,0,0-.55-1,.79.79,0,0,0-1,.55l-.81,5.73a.81.81,0,0,0,.55,1,.78.78,0,0,0,1-.55Z"/><path class="cls-8" d="M306.5,143.09a41.2,41.2,0,0,1,8.89-7.17.79.79,0,0,0-.79-1.36,43,43,0,0,0-9.2,7.42c-.69.74.41,1.85,1.1,1.11Z"/><path class="cls-8" d="M297.17,211.93l9.84-1.41a.79.79,0,0,0,.55-1,.8.8,0,0,0-1-.55l-9.85,1.41a.79.79,0,0,0-.55,1,.82.82,0,0,0,1,.55Z"/><polygon class="cls-4" points="429.19 300.91 389.64 300.91 389.64 298.6 426.88 298.6 426.88 185.52 429.19 185.52 429.19 300.91"/><circle class="cls-4" cx="428.04" cy="165.15" r="34.52"/><path class="cls-8" d="M424.8,146.07a11.2,11.2,0,1,0-1.81,17.3l22.49,22.49,3.27-3.27-2-2,3.9-3.9-3.26-3.27-3.91,3.91-2.59-2.6,2.15-2.14-3.27-3.27-2.15,2.15-11.39-11.39A11.22,11.22,0,0,0,424.8,146.07Zm-12.57,12.57a6.58,6.58,0,1,1,9.3,0A6.58,6.58,0,0,1,412.23,158.64Z"/><circle class="cls-4" cx="63.1" cy="328.38" r="34.52"/><polygon class="cls-4" points="115.35 400.65 61.95 400.65 61.95 332.2 64.26 332.2 64.26 398.34 115.35 398.34 115.35 400.65"/><path class="cls-8" d="M50.93,329.25a8.82,8.82,0,0,1-1.7-3.78,30.5,30.5,0,0,1-.68-4.52q-.06-1.83-.06-3.9a29.28,29.28,0,0,1,1-6.83,8.79,8.79,0,0,1,1.62-3.45,3.05,3.05,0,0,1,2.41-1.31q6.82,0,6.83,12.08v.18h-.06a25.28,25.28,0,0,0-.49,6.47,13.44,13.44,0,0,1-.49,3.41,4.38,4.38,0,0,1-1.52,2.32,5.91,5.91,0,0,1-3.48.91A4,4,0,0,1,50.93,329.25Zm6.59-10.07q0-10.67-3.78-10.67c-.49,0-1,1.12-1.52,3.35a24.34,24.34,0,0,0-.8,5.13q0,1.83.12,3.66a32.9,32.9,0,0,0,.8,4.82,5.44,5.44,0,0,0,.76,1.74,1.32,1.32,0,0,0,1.07.64Q57.52,327.85,57.52,319.18Zm-.67,31q0-3.72,2.93-15.31,2.69-10.55,5.12-19.52l1.22-4.51.55-2a5.15,5.15,0,0,1,.52-2c.31-.61.7-.92,1.19-.92a1.73,1.73,0,0,1,1.16.43,1.33,1.33,0,0,1,.49,1q0,4.27-5.43,24.52-2.38,9-2.68,10.62a12.63,12.63,0,0,0-.31,1.65,32.58,32.58,0,0,1-1.22,4.94,6.28,6.28,0,0,1-1,2,1.93,1.93,0,0,1-1.34.79A2,2,0,0,1,56.85,350.17Zm12.39.64a5.9,5.9,0,0,1-1.47-2.16,21,21,0,0,1-1.4-5.68c-.08-1.13-.12-1.91-.12-2.31,0-1.35,0-2.63.12-3.85a22.81,22.81,0,0,1,.61-4.57,8.78,8.78,0,0,1,1.77-3.84A3.69,3.69,0,0,1,72,326.75a5.1,5.1,0,0,1,2.29.49,4.45,4.45,0,0,1,1.68,1.4,10.66,10.66,0,0,1,1.71,4.27,26.81,26.81,0,0,1,.36,4.57v2.93a19,19,0,0,1-1.28,7.26,6.69,6.69,0,0,1-2.13,2.9,5.51,5.51,0,0,1-3.42,1.07A3,3,0,0,1,69.24,350.81Zm5.85-10.58v-2.44a21.79,21.79,0,0,0-.55-4.7,5.65,5.65,0,0,0-1-2.35,2.09,2.09,0,0,0-1.68-.88c-.57,0-1.06.47-1.47,1.4q-.86,1.83-1.15,7c0,.65-.07,1.5-.07,2.56a19.35,19.35,0,0,0,.77,4.51c.51,2,1,2.93,1.49,2.93Q75.09,348.22,75.09,340.23Z"/></g></svg>